<?xml version="1.0" encoding="UTF-8"?>
<svg xmlns="http://www.w3.org/2000/svg" xmlns:xlink="http://www.w3.org/1999/xlink" viewBox="0 0 395.79 451.44">
  <defs>
    <style>
      .cls-1 {
        fill: url(#linear-gradient-2);
      }

      .cls-2 {
        font-family: MyriadPro-Regular, 'Myriad Pro';
        font-size: 75.23px;
      }

      .cls-3 {
        isolation: isolate;
      }

      .cls-4 {
        fill: #009345;
      }

      .cls-5, .cls-6, .cls-7, .cls-8 {
        mix-blend-mode: multiply;
      }

      .cls-5, .cls-9 {
        opacity: .25;
      }

      .cls-6, .cls-10 {
        opacity: .29;
      }

      .cls-9, .cls-10 {
        mix-blend-mode: screen;
      }

      .cls-11 {
        fill: url(#linear-gradient);
      }

      .cls-7 {
        opacity: .24;
      }

      .cls-12 {
        fill: #231f20;
      }

      .cls-8 {
        opacity: .46;
      }
    </style>
    <linearGradient id="linear-gradient" x1="338.77" y1="332.86" x2="93.46" y2="72.76" gradientUnits="userSpaceOnUse">
      <stop offset="0" stop-color="#92c84d"/>
      <stop offset="1" stop-color="#aed14b"/>
    </linearGradient>
    <linearGradient id="linear-gradient-2" x1="296.63" y1="41.96" x2="61.68" y2="337.43" gradientUnits="userSpaceOnUse">
      <stop offset="0" stop-color="#a5ce52"/>
      <stop offset="1" stop-color="#21bbba"/>
    </linearGradient>
  </defs>
  <g class="cls-3">
    <g id="Layer_1" data-name="Layer 1">
      <g>
        <g>
          <path class="cls-4" d="m82.85,62.91L31.62,328.25c-3.18,16.48,17.18,26.86,28.65,14.6l17.75-18.99,30.5-256.64-9.91-9.38c-5.41-5.12-14.34-2.25-15.75,5.07Z"/>
          <g class="cls-6">
            <path class="cls-4" d="m108.51,67.23l-9.91-9.38c-.08-.08-.17-.13-.25-.21-1.12,1.27-1.93,2.89-2.22,4.78l-41.51,267.03c-.92,5.92,1.14,10.94,4.65,14.39.34-.31.68-.64,1.01-.99l17.75-18.99,30.5-256.64Z"/>
          </g>
          <path class="cls-4" d="m313.18,13.93l51.17,316.46c2.37,14.66-15.51,23.68-25.9,13.07l-28.64-29.28L271.17,22.49l12.62-16.12c8.9-11.37,27.08-6.69,29.39,7.57Z"/>
          <g class="cls-5">
            <path class="cls-4" d="m293.52,13.87c-.64-4.69-3.03-8.36-6.25-10.83-1.26.9-2.43,1.99-3.48,3.32l-12.62,16.12,38.64,291.69,25.85,26.42c1.37-2.6,2.01-5.71,1.54-9.16L293.52,13.87Z"/>
          </g>
          <g class="cls-8">
            <path class="cls-4" d="m96.33,68.41c-4.9-4.64-12.67-2.7-15.15,3.14l-16.42,85.03,18.97-33.07c3.28-5.9,11.32-6.98,16.04-2.15l2.03,2.08,5.34-44.78-10.83-10.25Z"/>
          </g>
          <g class="cls-8">
            <path class="cls-4" d="m361.65,313.69l-2.5-15.49-12.64-77.33h0c-9,17.98-31.84,23.05-47.53,11.53l8.61,65,28.08,28.71c10.23,10.46,27.73,1.84,25.97-12.42Z"/>
          </g>
          <path class="cls-4" d="m68.22,138.69l18.77-33.75c3.28-5.9,11.32-6.98,16.04-2.15l235.32,240.57c10.39,10.63,28.29,1.57,25.89-13.09l-15.06-92.15h0c-9.62,19.21-35.05,23.69-50.65,8.93L98.6,57.85c-5.41-5.12-14.34-2.25-15.75,5.07l-14.63,75.78Z"/>
          <g class="cls-5">
            <path class="cls-4" d="m361.11,311.12c-5.7,4.13-14.29,4.56-20.35-1.36L103.34,77.86c-4.76-4.65-12.88-3.61-16.19,2.08l-11.36,19.52-7.58,39.24,18.77-33.75c3.28-5.9,11.32-6.98,16.04-2.15l235.32,240.57c10.39,10.63,28.29,1.57,25.89-13.09l-3.13-19.15Z"/>
          </g>
          <g class="cls-9">
            <path class="cls-4" d="m361.11,311.12c-5.7,4.13-14.29,4.56-20.35-1.36L103.34,77.86c-4.76-4.65-12.88-3.61-16.19,2.08l-11.36,19.52"/>
            <path class="cls-11" d="m361.11,311.12c-3.33,2.4-7.6,3.58-11.7,3-2.05-.28-4.04-.98-5.81-2.05-1.8-1.05-3.25-2.56-4.73-3.98l-17.76-17.18-35.42-34.47-70.83-68.95-70.6-69.18-35.3-34.59-4.4-4.34c-.73-.72-1.46-1.46-2.23-2.1-.81-.59-1.68-1.14-2.64-1.47-1.89-.75-4-.85-5.98-.43-1.97.45-3.85,1.46-5.22,2.96-.71.74-1.23,1.61-1.75,2.51l-1.57,2.66-3.13,5.32-6.27,10.65,6.16-10.71,3.08-5.35,1.54-2.68c.51-.89,1.04-1.8,1.76-2.56,1.39-1.56,3.31-2.61,5.33-3.09,2.03-.45,4.21-.37,6.17.39,1,.33,1.9.89,2.75,1.5.82.67,1.54,1.4,2.28,2.11l4.44,4.3,35.42,34.47,70.83,68.95,70.6,69.18,35.3,34.59,17.59,17.35c1.47,1.44,2.89,2.95,4.65,4,1.74,1.08,3.7,1.79,5.73,2.09,4.07.62,8.33-.51,11.69-2.88Z"/>
          </g>
          <g class="cls-7">
            <polygon class="cls-4" points="177.67 132.67 157.17 158.13 202.04 204.01 225.88 178.29 177.67 132.67"/>
          </g>
          <g class="cls-8">
            <path class="cls-4" d="m286.95,25.14l-13.2,16.85,10.98,82.86,8.98-9.61c5.47-5.85,14.77-5.78,20.15.15l18.92,20.87-9.6-60.45-7.23-44.7c-3.36-12.98-20.45-16.92-29.01-5.98Z"/>
          </g>
          <g class="cls-8">
            <path class="cls-4" d="m63.7,325.19l16.22-17.35,7.62-64.14-14.29,18.25c-8.48,10.83-25.67,5.92-27.39-7.48l-11.24,58.2c-1.12,15.3,18.06,24.31,29.07,12.53Z"/>
          </g>
          <path class="cls-4" d="m42.44,271.28h0c1.16,13.96,18.84,19.24,27.47,8.22L283.71,6.48c8.92-11.39,27.13-6.67,29.4,7.61l16.44,103.51-18.92-20.87c-5.38-5.93-14.68-6.01-20.15-.15L60.37,342.74c-11.52,12.32-31.98,1.91-28.8-14.65l10.88-56.81Z"/>
          <g class="cls-6">
            <path class="cls-4" d="m321.73,68.38l-13.69-16.34c-5.33-6.36-14.54-6.44-19.96-.16L60.15,315.85c-7.97,9.23-20.25,6.56-25.87-1.94l-2.72,14.19c-3.17,16.56,17.29,26.97,28.8,14.65l230.1-246.16c5.47-5.85,14.77-5.78,20.15.15l18.92,20.87-7.82-49.23Z"/>
          </g>
          <g class="cls-10">
            <path class="cls-4" d="m321.73,68.38l-13.69-16.34c-5.33-6.36-14.54-6.44-19.96-.16L60.15,315.85c-7.97,9.23-20.25,6.56-25.87-1.94"/>
            <path class="cls-1" d="m321.73,68.38l-8.54-10.1-4.27-5.05c-.71-.85-1.42-1.69-2.22-2.43-.82-.72-1.69-1.4-2.66-1.89-1.92-1.03-4.1-1.61-6.28-1.53-2.18.06-4.33.68-6.2,1.79-.44.31-.91.59-1.34.93-.4.36-.86.67-1.22,1.08-.76.77-1.46,1.63-2.18,2.46l-4.3,5.02-34.5,40.09-69.01,80.18-69.26,79.96-34.63,39.98-8.69,9.97-4.34,4.98c-.73.82-1.42,1.68-2.2,2.48l-1.16,1.19-1.29,1.05c-1.78,1.32-3.81,2.31-5.98,2.8-2.16.5-4.44.47-6.59-.02-4.33-.97-8.15-3.74-10.58-7.42,2.47,3.65,6.3,6.37,10.61,7.3,2.14.47,4.39.48,6.52-.04,2.13-.5,4.13-1.49,5.87-2.81l1.27-1.04,1.14-1.18c.75-.79,1.44-1.66,2.17-2.49l4.3-5.02,8.6-10.05,34.5-40.09,69.01-80.18,69.26-79.96,34.63-39.98,4.34-4.98c.73-.83,1.43-1.67,2.23-2.46.37-.42.84-.73,1.26-1.1.44-.35.92-.63,1.38-.94,1.93-1.12,4.15-1.74,6.38-1.78,2.23-.06,4.46.55,6.4,1.62.99.52,1.87,1.21,2.69,1.95.81.76,1.52,1.62,2.21,2.47l4.22,5.09,8.44,10.18Z"/>
          </g>
        </g>
        <g>
          <g>
            <polygon class="cls-4" points="388 366.49 393.11 366.49 390.56 371.69 388 376.9 385.45 371.69 382.9 366.49 388 366.49"/>
            <g>
              <path class="cls-4" d="m90.47,432.63l-.6-5.23h-.26c-2.32,3.26-6.77,6.17-12.69,6.17-8.4,0-12.69-5.92-12.69-11.92,0-10.03,8.92-15.52,24.95-15.43v-.86c0-3.43-.94-9.6-9.43-9.6-3.86,0-7.89,1.2-10.8,3.09l-1.71-4.97c3.43-2.23,8.4-3.69,13.63-3.69,12.69,0,15.78,8.66,15.78,16.98v15.52c0,3.6.17,7.12.69,9.95h-6.86Zm-1.11-21.18c-8.23-.17-17.58,1.29-17.58,9.35,0,4.89,3.26,7.2,7.12,7.2,5.4,0,8.83-3.43,10.03-6.94.26-.77.43-1.63.43-2.4v-7.2Z"/>
              <path class="cls-4" d="m107.78,424.91c2.23,1.46,6.17,3,9.95,3,5.49,0,8.06-2.74,8.06-6.17,0-3.6-2.14-5.57-7.72-7.63-7.46-2.66-10.97-6.77-10.97-11.75,0-6.69,5.4-12.17,14.32-12.17,4.2,0,7.89,1.2,10.2,2.57l-1.89,5.49c-1.63-1.03-4.63-2.4-8.49-2.4-4.46,0-6.94,2.57-6.94,5.66,0,3.43,2.49,4.97,7.89,7.03,7.2,2.74,10.89,6.34,10.89,12.52,0,7.29-5.66,12.43-15.52,12.43-4.54,0-8.75-1.11-11.66-2.83l1.89-5.74Z"/>
              <path class="cls-4" d="m177.48,421.31c0,4.29.09,8.06.34,11.32h-6.69l-.43-6.77h-.17c-1.97,3.34-6.34,7.72-13.72,7.72-6.52,0-14.32-3.6-14.32-18.18v-24.26h7.54v22.98c0,7.89,2.4,13.2,9.26,13.2,5.06,0,8.57-3.52,9.95-6.86.43-1.11.69-2.49.69-3.86v-25.46h7.54v30.18Z"/>
              <path class="cls-4" d="m190,402.36c0-4.29-.09-7.8-.34-11.23h6.6l.34,6.69h.26c2.32-3.94,6.17-7.63,13.03-7.63,5.66,0,9.95,3.43,11.75,8.32h.17c1.29-2.32,2.92-4.12,4.63-5.4,2.49-1.89,5.23-2.91,9.17-2.91,5.49,0,13.63,3.6,13.63,18v24.44h-7.37v-23.49c0-7.97-2.92-12.77-9-12.77-4.29,0-7.63,3.17-8.92,6.86-.34,1.03-.6,2.4-.6,3.77v25.64h-7.37v-24.86c0-6.6-2.92-11.4-8.66-11.4-4.72,0-8.14,3.77-9.34,7.54-.43,1.11-.6,2.4-.6,3.69v25.04h-7.37v-30.26Z"/>
              <path class="cls-4" d="m282.42,432.63v-15.18h-25.89v-4.97l24.86-35.58h8.15v34.64h7.8v5.92h-7.8v15.18h-7.12Zm0-21.09v-18.6c0-2.91.09-5.83.26-8.74h-.26c-1.71,3.26-3.09,5.66-4.63,8.23l-13.63,18.95v.17h18.26Z"/>
              <path class="cls-12" d="m331.37,374.84v57.79h-7.46v-57.79h7.46Z"/>
              <path class="cls-12" d="m355.38,381.19h-17.58v-6.34h42.78v6.34h-17.66v51.44h-7.55v-51.44Z"/>
            </g>
            <polygon class="cls-4" points="379.25 356.38 384.36 356.38 381.8 361.59 379.25 366.79 376.7 361.59 374.14 356.38 379.25 356.38"/>
            <polygon class="cls-4" points="390.69 352.86 395.79 352.86 393.24 358.07 390.69 363.27 388.13 358.07 385.58 352.86 390.69 352.86"/>
          </g>
          <text class="cls-2" transform="translate(0 432.63)"><tspan x="0" y="0">M</tspan></text>
        </g>
      </g>
    </g>
  </g>
</svg>