<?xml version="1.0" encoding="UTF-8"?>
<svg xmlns="http://www.w3.org/2000/svg" xmlns:xlink="http://www.w3.org/1999/xlink" viewBox="0 0 487.26 101.8">
  <defs>
    <style>
      .cls-1 {
        fill: url(#linear-gradient-2);
      }

      .cls-2 {
        isolation: isolate;
      }

      .cls-3 {
        fill: #009444;
      }

      .cls-4, .cls-5, .cls-6, .cls-7 {
        mix-blend-mode: multiply;
      }

      .cls-4, .cls-8 {
        opacity: .25;
      }

      .cls-5, .cls-9 {
        opacity: .29;
      }

      .cls-10 {
        fill: #808285;
      }

      .cls-8, .cls-9 {
        mix-blend-mode: screen;
      }

      .cls-11 {
        fill: url(#linear-gradient);
      }

      .cls-6 {
        opacity: .24;
      }

      .cls-7 {
        opacity: .46;
      }
    </style>
    <linearGradient id="linear-gradient" x1="90.15" y1="97.56" x2="17.95" y2="21.02" gradientUnits="userSpaceOnUse">
      <stop offset="0" stop-color="#94c94e"/>
      <stop offset="1" stop-color="#afd24c"/>
    </linearGradient>
    <linearGradient id="linear-gradient-2" x1="77.81" y1="12" x2="8.68" y2="98.92" gradientUnits="userSpaceOnUse">
      <stop offset="0" stop-color="#a7d053"/>
      <stop offset="1" stop-color="#23bcbb"/>
    </linearGradient>
  </defs>
  <g class="cls-2">
    <g id="Layer_1" data-name="Layer 1">
      <polygon class="cls-3" points="478.26 16.12 484.16 16.12 481.21 22.13 478.26 28.15 475.31 22.13 472.36 16.12 478.26 16.12"/>
      <g>
        <g>
          <path class="cls-3" d="m134.48,92.54l-.69-6.04h-.3c-2.67,3.76-7.83,7.13-14.66,7.13-9.71,0-14.66-6.83-14.66-13.77,0-11.59,10.3-17.93,28.83-17.83v-.99c0-3.96-1.09-11.09-10.9-11.09-4.46,0-9.11,1.39-12.48,3.57l-1.98-5.75c3.96-2.58,9.71-4.26,15.75-4.26,14.66,0,18.23,10.01,18.23,19.61v17.93c0,4.16.2,8.22.79,11.49h-7.92Zm-1.29-24.47c-9.51-.2-20.31,1.49-20.31,10.8,0,5.65,3.76,8.32,8.22,8.32,6.24,0,10.2-3.96,11.59-8.02.3-.89.5-1.88.5-2.77v-8.32Z"/>
          <path class="cls-3" d="m154.49,83.62c2.58,1.68,7.13,3.47,11.49,3.47,6.34,0,9.31-3.17,9.31-7.13,0-4.16-2.48-6.44-8.92-8.82-8.62-3.07-12.68-7.83-12.68-13.57,0-7.73,6.24-14.07,16.54-14.07,4.85,0,9.11,1.39,11.79,2.97l-2.18,6.34c-1.88-1.19-5.35-2.77-9.81-2.77-5.15,0-8.02,2.97-8.02,6.54,0,3.96,2.87,5.75,9.11,8.12,8.32,3.17,12.58,7.33,12.58,14.46,0,8.42-6.54,14.36-17.93,14.36-5.25,0-10.1-1.29-13.47-3.27l2.18-6.64Z"/>
          <path class="cls-3" d="m235.03,79.46c0,4.95.1,9.31.4,13.08h-7.73l-.5-7.83h-.2c-2.28,3.86-7.33,8.92-15.85,8.92-7.53,0-16.54-4.16-16.54-21v-28.03h8.72v26.55c0,9.11,2.77,15.25,10.7,15.25,5.84,0,9.91-4.06,11.49-7.92.5-1.29.79-2.87.79-4.46v-29.42h8.72v34.87Z"/>
          <path class="cls-3" d="m249.49,57.57c0-4.95-.1-9.01-.4-12.98h7.63l.4,7.73h.3c2.67-4.56,7.13-8.82,15.06-8.82,6.54,0,11.49,3.96,13.57,9.61h.2c1.49-2.67,3.37-4.75,5.35-6.24,2.87-2.18,6.04-3.37,10.6-3.37,6.34,0,15.75,4.16,15.75,20.8v28.23h-8.52v-27.14c0-9.21-3.37-14.76-10.4-14.76-4.95,0-8.82,3.67-10.3,7.92-.4,1.19-.69,2.77-.69,4.36v29.62h-8.52v-28.73c0-7.63-3.37-13.17-10.01-13.17-5.45,0-9.41,4.36-10.8,8.72-.5,1.29-.69,2.77-.69,4.26v28.93h-8.52v-34.97Z"/>
          <path class="cls-3" d="m356.27,92.54v-17.53h-29.92v-5.75l28.73-41.11h9.41v40.02h9.01v6.84h-9.01v17.53h-8.22Zm0-24.37v-21.5c0-3.37.1-6.74.3-10.1h-.3c-1.98,3.76-3.57,6.54-5.35,9.51l-15.75,21.89v.2h21.1Z"/>
          <path class="cls-10" d="m412.83,25.77v66.77h-8.62V25.77h8.62Z"/>
          <path class="cls-10" d="m440.56,33.1h-20.31v-7.33h49.43v7.33h-20.41v59.44h-8.72v-59.44Z"/>
        </g>
        <g>
          <path class="cls-3" d="m15.09,18.39L.11,95.97c-.93,4.82,5.02,7.85,8.38,4.27l5.19-5.55L22.59,19.65l-2.9-2.74c-1.58-1.5-4.19-.66-4.61,1.48Z"/>
          <g class="cls-5">
            <path class="cls-3" d="m22.59,19.65l-2.9-2.74s-.05-.04-.07-.06c-.33.37-.56.84-.65,1.4L6.84,96.32c-.27,1.73.33,3.2,1.36,4.21.1-.09.2-.19.29-.29l5.19-5.55L22.59,19.65Z"/>
          </g>
          <path class="cls-3" d="m82.43,4.07l14.96,92.52c.69,4.29-4.54,6.92-7.57,3.82l-8.37-8.56L70.15,6.57l3.69-4.71c2.6-3.32,7.92-1.96,8.59,2.21Z"/>
          <g class="cls-4">
            <path class="cls-3" d="m76.68,4.05c-.19-1.37-.89-2.44-1.83-3.16-.37.26-.71.58-1.02.97l-3.69,4.71,11.3,85.28,7.56,7.72c.4-.76.59-1.67.45-2.68L76.68,4.05Z"/>
          </g>
          <g class="cls-7">
            <path class="cls-3" d="m19.03,20c-1.43-1.36-3.71-.79-4.43.92l-4.8,24.86,5.55-9.67c.96-1.73,3.31-2.04,4.69-.63l.59.61,1.56-13.09-3.17-3Z"/>
          </g>
          <g class="cls-7">
            <path class="cls-3" d="m96.6,91.71l-.73-4.53-3.7-22.61h0c-2.63,5.26-9.31,6.74-13.89,3.37l2.52,19,8.21,8.39c2.99,3.06,8.11.54,7.59-3.63Z"/>
          </g>
          <path class="cls-3" d="m10.81,40.55l5.49-9.87c.96-1.73,3.31-2.04,4.69-.63l68.8,70.33c3.04,3.11,8.27.46,7.57-3.83l-4.4-26.94h0c-2.81,5.62-10.25,6.93-14.81,2.61L19.7,16.91c-1.58-1.5-4.19-.66-4.61,1.48l-4.28,22.16Z"/>
          <g class="cls-4">
            <path class="cls-3" d="m96.44,90.96c-1.67,1.21-4.18,1.33-5.95-.4L21.08,22.76c-1.39-1.36-3.76-1.06-4.73.61l-3.32,5.71-2.21,11.47,5.49-9.87c.96-1.73,3.31-2.04,4.69-.63l68.8,70.33c3.04,3.11,8.27.46,7.57-3.83l-.91-5.6Z"/>
          </g>
          <g class="cls-8">
            <path class="cls-3" d="m96.44,90.96c-1.67,1.21-4.18,1.33-5.95-.4L21.08,22.76c-1.39-1.36-3.76-1.06-4.73.61l-3.32,5.71"/>
            <path class="cls-11" d="m96.44,90.96c-.96.72-2.21,1.09-3.43.93-.61-.08-1.2-.28-1.73-.59-.54-.31-.98-.75-1.41-1.16l-5.25-4.97-10.43-10-20.75-20.11-20.59-20.27-10.24-10.19-1.27-1.28c-.43-.45-.82-.83-1.36-1.03-1.05-.43-2.37-.16-3.16.68-.38.42-.65.98-.97,1.48l-.93,1.55-1.88,3.08c1.2-2.1,2.26-4.23,3.6-6.29.84-.95,2.28-1.3,3.48-.85.61.19,1.12.66,1.53,1.07l1.31,1.24,10.43,10,20.75,20.11,20.59,20.27,10.24,10.19,5.09,5.13c.43.43.83.87,1.33,1.17.5.31,1.06.53,1.64.62,1.17.2,2.42-.11,3.41-.79Z"/>
          </g>
          <g class="cls-6">
            <polygon class="cls-3" points="42.81 38.79 36.82 46.23 49.94 59.64 56.91 52.12 42.81 38.79"/>
          </g>
          <g class="cls-7">
            <path class="cls-3" d="m74.76,7.35l-3.86,4.93,3.21,24.23,2.63-2.81c1.6-1.71,4.32-1.69,5.89.04l5.53,6.1-2.81-17.67-2.11-13.07c-.98-3.79-5.98-4.95-8.48-1.75Z"/>
          </g>
          <g class="cls-7">
            <path class="cls-3" d="m9.49,95.07l4.74-5.07,2.23-18.75-4.18,5.34c-2.48,3.17-7.5,1.73-8.01-2.19l-3.28,17.01c-.33,4.47,5.28,7.11,8.5,3.66Z"/>
          </g>
          <path class="cls-3" d="m3.28,79.31h0c.34,4.08,5.51,5.63,8.03,2.4L73.81,1.89c2.61-3.33,7.93-1.95,8.59,2.23l4.81,30.26-5.53-6.1c-1.57-1.74-4.29-1.76-5.89-.04L8.52,100.2c-3.37,3.6-9.35.56-8.42-4.28l3.18-16.61Z"/>
          <g class="cls-5">
            <path class="cls-3" d="m84.93,19.99l-4-4.78c-1.56-1.86-4.25-1.88-5.84-.05L8.45,92.34c-2.33,2.7-5.92,1.92-7.56-.57l-.79,4.15c-.93,4.84,5.05,7.88,8.42,4.28L75.79,28.24c1.6-1.71,4.32-1.69,5.89.04l5.53,6.1-2.29-14.39Z"/>
          </g>
          <g class="cls-9">
            <path class="cls-3" d="m84.93,19.99l-4-4.78c-1.56-1.86-4.25-1.88-5.84-.05L8.45,92.34c-2.33,2.7-5.92,1.92-7.56-.57"/>
            <path class="cls-1" d="m84.93,19.99l-2.54-2.92-1.26-1.46c-.41-.5-.85-.94-1.41-1.23-1.1-.6-2.49-.54-3.54.11-.53.32-.92.79-1.34,1.29l-1.24,1.48-10,11.79-20.13,23.48-20.3,23.34-10.21,11.62-2.57,2.89-1.28,1.45c-.43.47-.84,1-1.39,1.38-1.06.79-2.47,1.12-3.74.79-1.28-.31-2.39-1.14-3.08-2.22.74,1.06,1.87,1.83,3.11,2.08,1.25.28,2.58-.08,3.56-.85.51-.37.88-.89,1.31-1.38l1.24-1.48,2.48-2.96,10-11.79,20.13-23.48,20.3-23.33,10.21-11.62,1.28-1.45c.41-.47.88-1,1.47-1.33,1.17-.68,2.69-.7,3.85-.02.59.32,1.06.82,1.45,1.33l1.22,1.5,2.43,3.01Z"/>
          </g>
        </g>
        <polygon class="cls-3" points="468.14 4.44 474.05 4.44 471.1 10.46 468.14 16.47 465.19 10.46 462.24 4.44 468.14 4.44"/>
      </g>
      <polygon class="cls-3" points="481.36 .38 487.26 .38 484.31 6.39 481.36 12.41 478.41 6.39 475.46 .38 481.36 .38"/>
    </g>
  </g>
</svg>